<svg width="23" height="24" viewBox="0 0 23 24" fill="none" xmlns="http://www.w3.org/2000/svg">
<path d="M11.6134 23.8595C17.8825 23.8595 22.9647 18.7299 22.9647 12.4022C22.9647 6.0745 17.8825 0.944885 11.6134 0.944885C5.34432 0.944885 0.262207 6.0745 0.262207 12.4022C0.262207 18.7299 5.34432 23.8595 11.6134 23.8595Z" fill="#585F88"/>
<path d="M15.6594 18.6256H15.5324C15.2505 18.1608 14.9686 17.6919 14.6827 17.223C15.1631 16.9866 15.6039 16.7702 16.0724 16.5418C15.7309 16.2572 15.7349 16.2652 15.3974 16.4055C12.8643 17.4514 10.3273 17.4474 7.79815 16.3895C7.53214 16.2773 7.35745 16.2853 7.17481 16.5618C7.62743 16.7822 8.06416 16.9946 8.5406 17.223C8.25474 17.6959 7.97285 18.1608 7.69492 18.6256H7.56787C7.47655 18.5815 7.38524 18.5335 7.28995 18.5014C6.03532 18.0766 4.87201 17.4795 3.7881 16.7181C3.58959 16.5778 3.51812 16.4255 3.51415 16.1931C3.51415 15.8765 3.47841 15.5599 3.45459 15.2433C3.45459 15.1592 3.45459 15.075 3.45459 14.9869C3.4665 14.8506 3.49033 14.7144 3.4943 14.5781C3.56973 12.1456 4.31218 9.92143 5.55093 7.84557C5.82092 7.39273 6.14252 7.07213 6.65072 6.93187C7.50832 6.69142 8.35797 6.43094 9.21159 6.17847C9.25527 6.17847 9.29497 6.17847 9.33865 6.17847C9.44585 6.40689 9.56495 6.63131 9.6523 6.86374C9.7198 7.03606 9.80715 7.05209 9.98184 7.04007C10.8474 6.99599 11.7169 6.97595 12.5864 6.96393C12.8842 6.95992 13.2614 7.12823 13.4638 7C13.6862 6.85973 13.7537 6.463 13.8887 6.17847C13.9323 6.17847 13.972 6.17847 14.0157 6.17847C14.0514 6.1945 14.0872 6.22255 14.1269 6.23056C15.1354 6.4109 16.1041 6.71146 17.0372 7.13224C17.1563 7.18434 17.2833 7.2685 17.3508 7.37269C18.4268 8.99571 19.2089 10.743 19.5186 12.6826C19.6457 13.464 19.6893 14.2615 19.7688 15.051V15.2433C19.7489 15.5479 19.7092 15.8565 19.7132 16.161C19.7132 16.4175 19.6457 16.6019 19.4114 16.7341C18.8119 17.0828 18.2362 17.4795 17.6168 17.7881C16.9855 18.1087 16.3106 18.3491 15.6555 18.6216L15.6594 18.6256ZM15.7825 13.0232C15.7865 12.2337 15.2981 11.5605 14.6113 11.4082C13.8529 11.2439 13.1224 11.7328 12.904 12.5543C12.6737 13.4239 13.1383 14.3617 13.9125 14.5981C14.8574 14.8867 15.7746 14.1132 15.7825 13.0192V13.0232ZM8.87809 14.6663C9.66818 14.6783 10.2955 14.0251 10.3709 13.1154C10.4345 12.3179 9.91435 11.5645 9.19571 11.4082C8.48899 11.2519 7.81006 11.6647 7.54008 12.4101C7.15893 13.472 7.85771 14.6502 8.87809 14.6663Z" fill="#212435"/>
<path d="M15.6594 18.6256H15.5324C15.2505 18.1608 14.9686 17.6919 14.6827 17.223C15.1631 16.9866 15.6039 16.7702 16.0724 16.5418C15.7309 16.2572 15.7349 16.2652 15.3974 16.4055C12.8643 17.4514 10.3273 17.4474 7.79815 16.3895C7.53214 16.2773 7.35745 16.2853 7.17481 16.5618C7.62743 16.7822 8.06416 16.9946 8.5406 17.223C8.25474 17.6959 7.97285 18.1608 7.69492 18.6256H7.56787C7.47655 18.5815 7.38524 18.5335 7.28995 18.5014C6.03532 18.0766 4.87201 17.4795 3.7881 16.7181C3.58959 16.5778 3.51812 16.4255 3.51415 16.1931C3.51415 15.8765 3.47841 15.5599 3.45459 15.2433C3.45459 15.1592 3.45459 15.075 3.45459 14.9869C3.4665 14.8506 3.49033 14.7144 3.4943 14.5781C3.56973 12.1456 4.31218 9.92143 5.55093 7.84557C5.82092 7.39273 6.14252 7.07213 6.65072 6.93187C7.50832 6.69142 8.35797 6.43094 9.21159 6.17847C9.25527 6.17847 9.29497 6.17847 9.33865 6.17847C9.44585 6.40689 9.56495 6.63131 9.6523 6.86374C9.7198 7.03606 9.80715 7.05209 9.98184 7.04007C10.8474 6.99599 11.7169 6.97595 12.5864 6.96393C12.8842 6.95992 13.2614 7.12823 13.4638 7C13.6862 6.85973 13.7537 6.463 13.8887 6.17847C13.9323 6.17847 13.972 6.17847 14.0157 6.17847C14.0514 6.1945 14.0872 6.22255 14.1269 6.23056C15.1354 6.4109 16.1041 6.71146 17.0372 7.13224C17.1563 7.18434 17.2833 7.2685 17.3508 7.37269C18.4268 8.99571 19.2089 10.743 19.5186 12.6826C19.6457 13.464 19.6893 14.2615 19.7688 15.051V15.2433C19.7489 15.5479 19.7092 15.8565 19.7132 16.161C19.7132 16.4175 19.6457 16.6019 19.4114 16.7341C18.8119 17.0828 18.2362 17.4795 17.6168 17.7881C16.9855 18.1087 16.3106 18.3491 15.6555 18.6216L15.6594 18.6256ZM15.7825 13.0232C15.7865 12.2337 15.2981 11.5605 14.6113 11.4082C13.8529 11.2439 13.1224 11.7328 12.904 12.5543C12.6737 13.4239 13.1383 14.3617 13.9125 14.5981C14.8574 14.8867 15.7746 14.1132 15.7825 13.0192V13.0232ZM8.87809 14.6663C9.66818 14.6783 10.2955 14.0251 10.3709 13.1154C10.4345 12.3179 9.91435 11.5645 9.19571 11.4082C8.48899 11.2519 7.81006 11.6647 7.54008 12.4101C7.15893 13.472 7.85771 14.6502 8.87809 14.6663Z" fill="black" fill-opacity="0.2"/>
</svg>
