<svg width="22" height="23" viewBox="0 0 22 23" fill="none" xmlns="http://www.w3.org/2000/svg">
<path opacity="0.65" d="M5.82056 1.61177C5.88408 1.57971 5.94761 1.54365 6.01113 1.51559C5.94761 1.54765 5.88408 1.57971 5.82056 1.61177Z" fill="#212435"/>
<path opacity="0.65" d="M4.77222 2.24201C4.77222 2.24201 4.78144 2.2374 4.78605 2.23279C4.78144 2.23279 4.77683 2.2374 4.77222 2.24201Z" fill="#212435"/>
<path opacity="0.65" d="M19.1333 4.26071C19.1651 4.29678 19.1929 4.33285 19.2206 4.36891C19.1929 4.33285 19.1611 4.29678 19.1333 4.26071Z" fill="#212435"/>
<path d="M13.5471 21.1882C13.5432 20.2304 13.5471 19.2726 13.5471 18.3189C13.5471 17.7378 13.4876 17.1607 13.17 16.6518C13.0786 16.5035 12.9595 16.3672 12.8523 16.223C13.2772 16.1428 13.702 16.0867 14.1149 15.9785C15.2226 15.694 16.2152 15.2011 16.8902 14.2232C17.3865 13.5059 17.6128 12.6804 17.712 11.8228C17.7914 11.1535 17.8113 10.4843 17.6723 9.81904C17.5334 9.1498 17.2435 8.55269 16.8028 8.03572C16.6917 7.90748 16.6718 7.8073 16.7274 7.64299C17.0172 6.75334 16.8981 5.88372 16.5686 5.03013C16.5487 4.98204 16.4693 4.93395 16.4098 4.92594C16.0246 4.86582 15.6594 4.97803 15.3219 5.13833C14.774 5.39882 14.2459 5.69938 13.702 5.97188C13.6107 6.01997 13.4836 6.04802 13.3883 6.02398C11.689 5.59117 9.9897 5.59117 8.2904 6.02398C8.19114 6.04802 8.0482 6.01596 7.96086 5.95986C7.27002 5.51503 6.54344 5.16638 5.74937 4.95399C5.73746 4.95399 5.72158 4.94597 5.70967 4.94197C5.20941 4.83777 5.12206 4.89788 4.97913 5.38279C4.74885 6.16825 4.70914 6.95371 4.97913 7.73917C4.99898 7.79928 4.97913 7.90748 4.93148 7.95958C4.03418 8.98549 3.82376 10.2038 3.93492 11.5182C4.00242 12.3157 4.18506 13.0771 4.53842 13.7984C5.02677 14.7923 5.8526 15.3974 6.85313 15.7541C7.48045 15.9785 8.14746 16.0947 8.80654 16.263C8.81051 16.231 8.81448 16.255 8.80654 16.267C8.46906 16.6237 8.27849 17.0525 8.19908 17.5374C8.18717 17.5975 8.14746 17.6857 8.09982 17.7057C7.34545 17.9943 6.58712 18.1425 5.84069 17.6817C5.50321 17.4733 5.25308 17.1687 5.05456 16.8281C4.74091 16.2911 4.3002 15.8984 3.70464 15.722C3.49025 15.6579 3.24805 15.6739 3.01777 15.686C2.86293 15.694 2.81132 15.8142 2.91455 15.9424C3.00983 16.0627 3.10909 16.1989 3.23614 16.2751C3.80787 16.6077 4.1255 17.1367 4.38754 17.7137C4.54239 18.0584 4.67738 18.407 4.96722 18.6715C5.42778 19.0923 5.98362 19.2526 6.58315 19.2766C7.08738 19.3007 7.59559 19.2806 8.12761 19.2806C8.12761 19.2726 8.13555 19.3287 8.13952 19.3808C8.14746 19.9579 8.1554 20.539 8.15937 21.1161C8.15937 21.5128 7.99659 21.7452 7.71867 21.7853C8.71125 22.0859 9.75942 22.2502 10.8473 22.2502C11.9352 22.2502 12.9754 22.0899 13.9601 21.7933C13.7099 21.7452 13.5551 21.5248 13.5511 21.1842L13.5471 21.1882Z" fill="#212435"/>
<path d="M13.5471 21.1882C13.5432 20.2304 13.5471 19.2726 13.5471 18.3189C13.5471 17.7378 13.4876 17.1607 13.17 16.6518C13.0786 16.5035 12.9595 16.3672 12.8523 16.223C13.2772 16.1428 13.702 16.0867 14.1149 15.9785C15.2226 15.694 16.2152 15.2011 16.8902 14.2232C17.3865 13.5059 17.6128 12.6804 17.712 11.8228C17.7914 11.1535 17.8113 10.4843 17.6723 9.81904C17.5334 9.1498 17.2435 8.55269 16.8028 8.03572C16.6917 7.90748 16.6718 7.8073 16.7274 7.64299C17.0172 6.75334 16.8981 5.88372 16.5686 5.03013C16.5487 4.98204 16.4693 4.93395 16.4098 4.92594C16.0246 4.86582 15.6594 4.97803 15.3219 5.13833C14.774 5.39882 14.2459 5.69938 13.702 5.97188C13.6107 6.01997 13.4836 6.04802 13.3883 6.02398C11.689 5.59117 9.9897 5.59117 8.2904 6.02398C8.19114 6.04802 8.0482 6.01596 7.96086 5.95986C7.27002 5.51503 6.54344 5.16638 5.74937 4.95399C5.73746 4.95399 5.72158 4.94597 5.70967 4.94197C5.20941 4.83777 5.12206 4.89788 4.97913 5.38279C4.74885 6.16825 4.70914 6.95371 4.97913 7.73917C4.99898 7.79928 4.97913 7.90748 4.93148 7.95958C4.03418 8.98549 3.82376 10.2038 3.93492 11.5182C4.00242 12.3157 4.18506 13.0771 4.53842 13.7984C5.02677 14.7923 5.8526 15.3974 6.85313 15.7541C7.48045 15.9785 8.14746 16.0947 8.80654 16.263C8.81051 16.231 8.81448 16.255 8.80654 16.267C8.46906 16.6237 8.27849 17.0525 8.19908 17.5374C8.18717 17.5975 8.14746 17.6857 8.09982 17.7057C7.34545 17.9943 6.58712 18.1425 5.84069 17.6817C5.50321 17.4733 5.25308 17.1687 5.05456 16.8281C4.74091 16.2911 4.3002 15.8984 3.70464 15.722C3.49025 15.6579 3.24805 15.6739 3.01777 15.686C2.86293 15.694 2.81132 15.8142 2.91455 15.9424C3.00983 16.0627 3.10909 16.1989 3.23614 16.2751C3.80787 16.6077 4.1255 17.1367 4.38754 17.7137C4.54239 18.0584 4.67738 18.407 4.96722 18.6715C5.42778 19.0923 5.98362 19.2526 6.58315 19.2766C7.08738 19.3007 7.59559 19.2806 8.12761 19.2806C8.12761 19.2726 8.13555 19.3287 8.13952 19.3808C8.14746 19.9579 8.1554 20.539 8.15937 21.1161C8.15937 21.5128 7.99659 21.7452 7.71867 21.7853C8.71125 22.0859 9.75942 22.2502 10.8473 22.2502C11.9352 22.2502 12.9754 22.0899 13.9601 21.7933C13.7099 21.7452 13.5551 21.5248 13.5511 21.1842L13.5471 21.1882Z" fill="black" fill-opacity="0.2"/>
<path opacity="0.65" d="M4.24811 2.62165C3.36273 3.30693 2.58454 4.12445 1.94531 5.05017C2.17162 4.72958 2.41381 4.421 2.67586 4.11643C3.16024 3.5594 3.68432 3.05847 4.24414 2.61765L4.24811 2.62165Z" fill="#212435"/>
<path d="M4.78442 2.23322C5.11793 2.0088 5.46335 1.80041 5.82068 1.61206C5.46335 1.80041 5.11793 2.00479 4.78442 2.23322Z" fill="#585F88"/>
<path d="M19.0693 4.18082C19.0934 4.20486 19.1135 4.23291 19.1376 4.26097C19.1135 4.23692 19.0934 4.20887 19.0693 4.18082Z" fill="#585F88"/>
<path d="M4.24829 2.62303C4.24829 2.62303 4.26118 2.61018 4.26977 2.6059C4.26118 2.61018 4.25688 2.61875 4.24829 2.62303Z" fill="#585F88"/>
<path d="M6.01074 1.51158C6.03485 1.49956 6.05494 1.48754 6.07905 1.47952C6.05494 1.49155 6.03485 1.50357 6.01074 1.51158Z" fill="#585F88"/>
<path d="M21.686 11.3099C21.686 8.67296 20.7609 6.25646 19.2244 4.36494C19.1966 4.32887 19.1649 4.29281 19.1371 4.25674C19.1133 4.22869 19.0934 4.20464 19.0696 4.17659C18.6567 3.70371 18.1961 3.25888 17.6839 2.84211C14.9841 0.658042 11.8952 -0.0392558 8.5164 0.654034C7.65086 0.830363 6.83694 1.10688 6.0786 1.47957C6.05478 1.49159 6.03493 1.50362 6.01111 1.51163C5.94758 1.54369 5.88406 1.57575 5.82053 1.60781C5.4632 1.79616 5.11778 2.00455 4.78427 2.22897C4.7803 2.22897 4.77633 2.23297 4.77236 2.23698C4.68898 2.29308 4.6056 2.3532 4.52223 2.41331C4.43885 2.47743 4.3515 2.53754 4.26812 2.60166C4.26018 2.60567 4.25621 2.61368 4.24827 2.61769C3.68845 3.0545 3.16437 3.55543 2.67998 4.11648C2.41794 4.41704 2.17575 4.72962 1.94944 5.05022C0.722603 6.82552 0 8.98153 0 11.3099C0 16.2551 3.25171 20.4348 7.71439 21.7894C7.99628 21.7493 8.15906 21.5169 8.15509 21.1201C8.15112 20.543 8.14318 19.962 8.13524 19.3849C8.13524 19.3328 8.12333 19.2767 8.12333 19.2847C7.5913 19.2847 7.08707 19.3007 6.57887 19.2807C5.97934 19.2526 5.42349 19.0964 4.96293 18.6756C4.6731 18.4111 4.54208 18.0584 4.38326 17.7178C4.12122 17.1407 3.80359 16.6117 3.23186 16.2791C3.10481 16.203 3.00555 16.0667 2.91026 15.9465C2.80704 15.8142 2.85865 15.698 3.01349 15.69C3.2398 15.678 3.48597 15.662 3.70036 15.7261C4.29592 15.9024 4.73662 16.2951 5.05028 16.8321C5.2488 17.1768 5.49893 17.4773 5.83641 17.6857C6.58284 18.1466 7.34117 17.9943 8.09554 17.7098C8.14318 17.6897 8.18686 17.6056 8.1948 17.5415C8.2742 17.0566 8.46478 16.6278 8.80226 16.2711C8.81417 16.2591 8.8102 16.235 8.80226 16.2671C8.14318 16.0988 7.47616 15.9826 6.84885 15.7581C5.84832 15.4015 5.02249 14.7923 4.53414 13.8025C4.18078 13.0852 3.99814 12.3197 3.93064 11.5223C3.81947 10.2078 4.0299 8.98955 4.9272 7.96364C4.97088 7.91154 4.9947 7.80334 4.97485 7.74323C4.70089 6.95777 4.74457 6.1723 4.97485 5.38684C5.11778 4.90194 5.2091 4.84183 5.70539 4.94602C5.7173 4.94602 5.73318 4.95404 5.74509 4.95804C6.53916 5.17044 7.26574 5.51909 7.95658 5.96392C8.04392 6.02002 8.18686 6.05609 8.28612 6.02804C9.98542 5.59523 11.6847 5.59523 13.384 6.02804C13.4793 6.05208 13.6064 6.02002 13.6977 5.97594C14.2416 5.70343 14.7697 5.40287 15.3176 5.14239C15.6551 4.98209 16.0204 4.86988 16.4055 4.92999C16.465 4.93801 16.5444 4.9861 16.5643 5.03419C16.8899 5.88777 17.0129 6.75739 16.7231 7.64705C16.6675 7.81135 16.6913 7.91555 16.7985 8.03978C17.2432 8.55674 17.5291 9.15385 17.668 9.8231C17.807 10.4883 17.7872 11.1576 17.7078 11.8268C17.6085 12.6844 17.3822 13.51 16.8859 14.2273C16.2109 15.2051 15.2183 15.698 14.1106 15.9826C13.6977 16.0868 13.2729 16.1469 12.848 16.227C12.9552 16.3713 13.0744 16.5075 13.1657 16.6558C13.4793 17.1648 13.5389 17.7418 13.5429 18.3229C13.5468 19.2807 13.5429 20.2385 13.5429 21.1923C13.5429 21.5329 13.7017 21.7533 13.9518 21.8014C18.4224 20.4509 21.6821 16.2671 21.6821 11.3179L21.686 11.3099Z" fill="#585F88"/>
</svg>
