<svg width="96" height="22" viewBox="0 0 96 22" fill="none" xmlns="http://www.w3.org/2000/svg">
<path d="M1.43797 6.5206C1.00279 6.5206 0.681143 6.65189 0.409947 6.90821C0.138751 7.17078 0 7.51463 0 7.93975V20.3745C0 20.7809 0.138751 21.1248 0.409947 21.3936C0.681143 21.6624 1.02802 21.7999 1.43797 21.7999C1.84792 21.7999 2.22002 21.6624 2.4786 21.3936C2.74349 21.1248 2.87594 20.7872 2.87594 20.3745V12.5161V8.24609V7.946C2.87594 7.52088 2.74349 7.17704 2.4786 6.91446C2.21371 6.65189 1.86684 6.52685 1.43797 6.52685V6.5206Z" fill="#6C6F8D"/>
<path d="M11.1569 7.20204C10.1289 6.65188 8.96842 6.3768 7.6692 6.3768C6.36999 6.3768 5.31043 6.64563 4.31394 7.18328C3.77155 7.47711 3.29223 7.82721 2.87598 8.23358V12.5035C2.87598 11.8158 3.06518 11.2094 3.43729 10.678C3.8157 10.1466 4.32025 9.72775 4.96355 9.40891C5.60685 9.09007 6.31953 8.93378 7.10789 8.93378C7.97193 8.93378 8.74137 9.09632 9.4099 9.42142C10.0784 9.74651 10.6082 10.2466 11.0055 10.9156C11.4029 11.5845 11.5984 12.4473 11.5984 13.5101V20.3683C11.5984 20.7746 11.7371 21.1185 12.0083 21.3873C12.2795 21.6561 12.6264 21.7937 13.0364 21.7937C13.4463 21.7937 13.7932 21.6561 14.0644 21.3873C14.3356 21.1185 14.4743 20.7809 14.4743 20.3683V13.5101C14.4743 11.9659 14.1779 10.6655 13.5851 9.60897C12.9922 8.55242 12.1849 7.74594 11.1569 7.19578V7.20204Z" fill="#6C6F8D"/>
<path d="M30.2477 7.40212C29.0809 6.74568 27.7439 6.41434 26.2429 6.41434C24.7418 6.41434 23.3732 6.74568 22.2064 7.40212C21.0397 8.05855 20.1189 8.97131 19.4567 10.1341C18.7881 11.297 18.4539 12.6411 18.4539 14.1603C18.4539 15.6795 18.7881 16.9986 19.4567 18.1614C20.1252 19.3243 21.0397 20.2308 22.2064 20.8934C23.3732 21.5499 24.7166 21.8812 26.2429 21.8812C27.7691 21.8812 29.1125 21.5499 30.2793 20.8934C31.446 20.237 32.3605 19.3243 33.0164 18.1614C33.6724 16.9986 34.0066 15.667 34.0066 14.1603C34.0066 12.6536 33.6724 11.297 33.0038 10.1341C32.3353 8.97131 31.4208 8.06481 30.254 7.40212H30.2477ZM30.6009 16.8673C30.1783 17.6488 29.5918 18.2615 28.835 18.7053C28.0845 19.1492 27.2141 19.3743 26.2365 19.3743C25.259 19.3743 24.3949 19.1492 23.6381 18.7053C22.8876 18.2615 22.2947 17.6488 21.8596 16.8673C21.4244 16.0858 21.21 15.1856 21.21 14.1603C21.21 13.135 21.4244 12.2347 21.8596 11.4408C22.2947 10.653 22.8876 10.0341 23.6381 9.59024C24.3886 9.14636 25.259 8.9213 26.2365 8.9213C27.2141 8.9213 28.0782 9.14636 28.835 9.59024C29.5918 10.0341 30.1783 10.653 30.6009 11.4408C31.0235 12.2285 31.2379 13.135 31.2379 14.1603C31.2379 15.1856 31.0298 16.0858 30.6009 16.8673Z" fill="#6C6F8D"/>
<path d="M59.8523 6.5206C59.436 6.5206 59.0954 6.65189 58.8242 6.90821C58.5531 7.17078 58.4143 7.51463 58.4143 7.93975V20.3433C58.4143 20.7496 58.5531 21.0935 58.8242 21.3623C59.0954 21.6311 59.4423 21.7687 59.8523 21.7687C60.2622 21.7687 60.6343 21.6311 60.8929 21.3623C61.1578 21.0935 61.2902 20.7559 61.2902 20.3433V7.946C61.2902 7.52088 61.1578 7.17704 60.8929 6.91446C60.628 6.65189 60.2811 6.52685 59.8523 6.52685V6.5206Z" fill="#6C6F8D"/>
<path d="M77.2657 7.37711C76.2124 6.73318 74.951 6.41434 73.4815 6.41434C72.012 6.41434 70.675 6.74568 69.5334 7.40212C68.3856 8.05855 67.49 8.97131 66.8404 10.1341C66.1908 11.297 65.8691 12.6411 65.8691 14.1603C65.8691 15.6795 66.2097 16.9986 66.8972 18.1614C67.5846 19.3243 68.5306 20.2308 69.7479 20.8934C70.9588 21.5499 72.3463 21.8812 73.9104 21.8812C74.7745 21.8812 75.6826 21.7249 76.635 21.4061C77.5873 21.0873 78.382 20.6809 79.019 20.1807C79.3406 19.9369 79.4857 19.6493 79.4668 19.318C79.4478 18.9804 79.2776 18.6741 78.9559 18.399C78.7099 18.1927 78.4261 18.0989 78.0919 18.1052C77.7639 18.1177 77.4549 18.2239 77.1774 18.424C76.799 18.7053 76.307 18.9491 75.6953 19.1617C75.0835 19.3743 74.4843 19.4805 73.9041 19.4805C72.8319 19.4805 71.8796 19.2492 71.0534 18.7866C70.2272 18.324 69.5776 17.6925 69.1046 16.8923C68.6316 16.0921 68.3982 15.1793 68.3982 14.1603C68.3982 13.1412 68.5937 12.2222 68.991 11.4158C69.3884 10.6093 69.9623 9.9716 70.7254 9.50271C71.4886 9.04008 72.4031 8.80877 73.4752 8.80877C74.415 8.80877 75.2159 9.02133 75.8719 9.4527C76.5341 9.87782 77.0386 10.4592 77.3981 11.1969C77.6504 11.7096 77.8144 12.2785 77.8964 12.8849L77.8774 12.9099H70.9588V15.1418H79.2019C79.5803 15.1418 79.8893 15.023 80.1353 14.7917C80.3813 14.5604 80.5011 14.2666 80.5011 13.9165C80.5011 12.4473 80.2236 11.1532 79.6686 10.0279C79.1136 8.90254 78.3063 8.02104 77.2531 7.38336L77.2657 7.37711Z" fill="#6C6F8D"/>
<path d="M95.3285 15.3419C94.969 14.7792 94.3825 14.2853 93.5626 13.8539C92.7427 13.4288 91.6327 13.0725 90.2199 12.7974C89.2045 12.5911 88.4351 12.3848 87.9053 12.1722C87.3818 11.9597 87.0286 11.7158 86.8457 11.447C86.6691 11.1782 86.5808 10.8781 86.5808 10.5405C86.5808 10.0029 86.8647 9.59023 87.4449 9.31516C88.0188 9.03383 88.7189 8.89629 89.5451 8.89629C90.2578 8.89629 90.8884 8.97756 91.4371 9.14636C91.9795 9.31516 92.4904 9.62149 92.9634 10.0654C93.2472 10.3279 93.5941 10.4905 94.0104 10.5655C94.4203 10.6405 94.7798 10.578 95.0825 10.3717C95.3852 10.1466 95.5429 9.87782 95.5618 9.54647C95.5808 9.22138 95.4609 8.90879 95.196 8.61496C94.6347 7.92726 93.8716 7.38961 92.913 6.99575C91.9543 6.60814 90.8506 6.40808 89.6082 6.40808C88.6495 6.40808 87.7287 6.55812 86.8457 6.86446C85.9628 7.1708 85.2375 7.63343 84.6699 8.25861C84.1022 8.88378 83.8247 9.66526 83.8247 10.6155C83.8247 11.6908 84.2536 12.6036 85.1113 13.3476C85.9691 14.0915 87.344 14.6479 89.2424 15.0168C90.7119 15.2794 91.721 15.6107 92.276 16.0233C92.831 16.4297 93.0959 16.9173 93.0769 17.4737C93.058 18.0301 92.7616 18.4865 92.1877 18.8366C91.6137 19.1867 90.7812 19.368 89.6901 19.368C88.8261 19.368 88.0377 19.218 87.3377 18.9116C86.6313 18.6053 86.1204 18.274 85.7988 17.9239C85.5339 17.6425 85.2186 17.48 84.8528 17.4362C84.487 17.3925 84.1149 17.5175 83.7365 17.8113C83.4148 18.0551 83.2319 18.3615 83.1877 18.7428C83.1373 19.1242 83.2571 19.4618 83.5409 19.7619C84.159 20.3745 85.0294 20.8809 86.152 21.2811C87.2683 21.6812 88.4918 21.8812 89.81 21.8812C91.1281 21.8812 92.2633 21.6749 93.1526 21.2686C94.0419 20.8622 94.723 20.312 95.1834 19.6243C95.6438 18.9366 95.8772 18.1677 95.8772 17.3112C95.8772 16.5672 95.7006 15.9108 95.3411 15.3481L95.3285 15.3419Z" fill="#6C6F8D"/>
<path d="M52.6562 0.38761C52.3914 0.125036 52.0445 0 51.6156 0C51.1867 0 50.8588 0.131287 50.5876 0.38761C50.3164 0.650185 50.1776 0.994032 50.1776 1.41915C50.1776 1.41915 50.0767 16.0045 49.6416 16.8048C49.2064 17.605 48.6135 18.2302 47.863 18.6866C47.1125 19.1429 46.2548 19.368 45.2961 19.368C44.3375 19.368 43.505 19.1429 42.7418 18.6866C41.9787 18.2302 41.3795 17.605 40.9381 16.8048C40.4966 16.0045 40.2758 15.1168 40.2758 14.129C40.2758 13.1412 40.4966 12.2347 40.9381 11.4533C41.3795 10.6718 41.9661 10.0278 42.7418 9.60273C43.8518 8.9963 45.2835 9.03382 45.2835 9.03382H47.472V6.43933H45.1321C45.1321 6.43933 43.732 6.47684 43.5239 6.51435C42.6283 6.65814 41.8021 6.96448 41.039 7.43336C39.9479 8.11481 39.0838 9.03382 38.4595 10.1904C37.8288 11.3532 37.5134 12.6661 37.5134 14.1353C37.5134 15.6044 37.854 16.9236 38.5414 18.0926C39.2289 19.2617 40.1623 20.187 41.3354 20.8684C42.5085 21.5499 43.8329 21.8875 45.3024 21.8875C46.7719 21.8875 48.0838 21.5499 49.2505 20.8684C50.4173 20.1932 51.3444 19.268 52.0319 18.0926C52.7193 16.9236 52.7698 15.6044 52.7698 14.1353L53.0599 1.4254C53.0599 1.00028 52.9274 0.656436 52.6625 0.393862L52.6562 0.38761Z" fill="#6C6F8D"/>
<path d="M59.8524 1.33163C58.919 1.33163 58.1685 2.08185 58.1685 3.00086C58.1685 3.91987 58.9253 4.67008 59.8524 4.67008C60.7795 4.67008 61.5363 3.91987 61.5363 3.00086C61.5363 2.08185 60.7795 1.33163 59.8524 1.33163Z" fill="#6C6F8D"/>
</svg>
