<svg width="23" height="23" viewBox="0 0 23 23" fill="none" xmlns="http://www.w3.org/2000/svg">
<path d="M11.6486 23C17.9177 23 22.9998 17.8703 22.9998 11.5426C22.9998 5.21494 17.9177 0.0853271 11.6486 0.0853271C5.37948 0.0853271 0.297363 5.21494 0.297363 11.5426C0.297363 17.8703 5.37948 23 11.6486 23Z" fill="#585F88"/>
<path d="M3.73975 16.8806C5.50655 17.0368 7.07484 16.608 8.49622 15.53C7.01131 15.3938 6.0227 14.6404 5.46685 13.2418C5.96314 13.3019 6.41973 13.3099 6.90015 13.1817C4.9507 12.6807 4.27177 10.9295 4.35515 9.93162C4.79189 10.156 5.24848 10.3043 5.78845 10.3163C4.97453 9.71923 4.50603 8.9538 4.38691 7.99201C4.2956 7.27468 4.43853 6.59341 4.8038 5.94821C6.56266 8.03609 8.78209 9.19024 11.478 9.37058C11.466 9.04197 11.4383 8.72938 11.4462 8.42081C11.4859 7.08232 12.5102 5.79593 13.7966 5.46331C15.0036 5.15072 16.0637 5.42724 16.9689 6.28884C17.0364 6.35296 17.096 6.36498 17.1873 6.34495C17.8146 6.20068 18.4142 5.98027 18.974 5.65967C19.0097 5.63963 19.0454 5.6236 19.109 5.59555C18.9978 5.98027 18.831 6.31289 18.5849 6.59341C18.3427 6.86992 18.0648 7.11839 17.8067 7.37086C18.3864 7.30273 18.9581 7.1264 19.5139 6.89798C19.5259 6.91 19.5378 6.92202 19.5497 6.93805C19.2876 7.24662 19.0415 7.56722 18.7635 7.85977C18.5372 8.09621 18.2752 8.28856 18.033 8.51298C17.9854 8.55706 17.9457 8.64122 17.9457 8.70534C17.9457 12.0876 16.6235 14.8047 13.8959 16.7844C12.7405 17.6219 11.4224 18.0748 10.0089 18.2591C8.67886 18.4314 7.37262 18.3473 6.08622 17.9706C5.28024 17.7341 4.51794 17.3895 3.80724 16.9367C3.79136 16.9246 3.77945 16.9126 3.73975 16.8806Z" fill="#212435"/>
<path d="M3.73975 16.8806C5.50655 17.0368 7.07484 16.608 8.49622 15.53C7.01131 15.3938 6.0227 14.6404 5.46685 13.2418C5.96314 13.3019 6.41973 13.3099 6.90015 13.1817C4.9507 12.6807 4.27177 10.9295 4.35515 9.93162C4.79189 10.156 5.24848 10.3043 5.78845 10.3163C4.97453 9.71923 4.50603 8.9538 4.38691 7.99201C4.2956 7.27468 4.43853 6.59341 4.8038 5.94821C6.56266 8.03609 8.78209 9.19024 11.478 9.37058C11.466 9.04197 11.4383 8.72938 11.4462 8.42081C11.4859 7.08232 12.5102 5.79593 13.7966 5.46331C15.0036 5.15072 16.0637 5.42724 16.9689 6.28884C17.0364 6.35296 17.096 6.36498 17.1873 6.34495C17.8146 6.20068 18.4142 5.98027 18.974 5.65967C19.0097 5.63963 19.0454 5.6236 19.109 5.59555C18.9978 5.98027 18.831 6.31289 18.5849 6.59341C18.3427 6.86992 18.0648 7.11839 17.8067 7.37086C18.3864 7.30273 18.9581 7.1264 19.5139 6.89798C19.5259 6.91 19.5378 6.92202 19.5497 6.93805C19.2876 7.24662 19.0415 7.56722 18.7635 7.85977C18.5372 8.09621 18.2752 8.28856 18.033 8.51298C17.9854 8.55706 17.9457 8.64122 17.9457 8.70534C17.9457 12.0876 16.6235 14.8047 13.8959 16.7844C12.7405 17.6219 11.4224 18.0748 10.0089 18.2591C8.67886 18.4314 7.37262 18.3473 6.08622 17.9706C5.28024 17.7341 4.51794 17.3895 3.80724 16.9367C3.79136 16.9246 3.77945 16.9126 3.73975 16.8806Z" fill="black" fill-opacity="0.2"/>
</svg>
