<svg width="16" height="16" viewBox="0 0 16 16" fill="none" xmlns="http://www.w3.org/2000/svg">
<g clip-path="url(#clip0_3306_1866)">
<circle cx="8" cy="8" r="8" fill="#7D69F4"/>
</g>
<path d="M5.1022 5.70117C4.77918 6.22339 4.61768 6.81642 4.61768 7.48027H5.61742V5.05664C5.42118 5.24976 5.24837 5.4638 5.10139 5.70117H5.1022Z" fill="white"/>
<path d="M5.1023 5.70146C5.24927 5.46409 5.42209 5.25005 5.61832 5.05693V4.88634C5.61832 4.64414 5.54402 4.44861 5.39624 4.30136C5.24766 4.15411 5.05223 4.08008 4.80916 4.08008C4.56609 4.08008 4.38278 4.15411 4.23015 4.30136C4.07672 4.44942 4 4.64414 4 4.88634V11.9408C4 12.1725 4.07672 12.3656 4.23015 12.5177C4.38358 12.6706 4.57659 12.747 4.80916 12.747C5.04173 12.747 5.24846 12.6706 5.39624 12.5177C5.54402 12.3648 5.61832 12.1725 5.61832 11.9408V7.48056H4.61858C4.61858 6.81591 4.78009 6.22288 5.10311 5.70146H5.1023Z" fill="white"/>
<path d="M10.2777 4.4667C9.70111 4.1561 9.0478 4 8.31698 4C7.58615 4 6.98857 4.15288 6.42813 4.45865C6.12207 4.62522 5.85316 4.82558 5.61816 5.05571V7.47934C5.61816 7.08908 5.72395 6.74388 5.93553 6.44294C6.14711 6.142 6.43298 5.90301 6.79233 5.72357C7.15169 5.54414 7.55466 5.45482 7.9988 5.45482C8.48575 5.45482 8.91698 5.54735 9.29249 5.73162C9.668 5.91589 9.96679 6.19832 10.1897 6.57812C10.4117 6.95792 10.5232 7.44795 10.5232 8.04903V11.9404C10.5232 12.1721 10.5999 12.3652 10.7533 12.5173C10.9068 12.6702 11.0998 12.7466 11.3323 12.7466C11.5649 12.7466 11.7579 12.6702 11.9114 12.5173C12.0648 12.3644 12.1415 12.1721 12.1415 11.9404V8.04903C12.1415 7.17357 11.9752 6.4357 11.6416 5.83462C11.3081 5.23354 10.8535 4.7773 10.2761 4.4667H10.2777Z" fill="white"/>
<defs>
<clipPath id="clip0_3306_1866">
<rect width="16" height="16" fill="white"/>
</clipPath>
</defs>
</svg>
